<?xml version="1.0" encoding="utf-8"?>
<!-- Generator: Adobe Illustrator 21.0.0, SVG Export Plug-In . SVG Version: 6.00 Build 0)  -->
<svg version="1.1" id="Camada_1" xmlns="http://www.w3.org/2000/svg" xmlns:xlink="http://www.w3.org/1999/xlink" x="0px" y="0px"
	 viewBox="0 0 719.7 102.5" style="enable-background:new 0 0 719.7 102.5;" xml:space="preserve">
<style type="text/css">
	.st0{fill:#FFFFFF;}
	.st1{fill:#242B59;}
	.st2{fill:#242B59;stroke:#242B59;stroke-miterlimit:10;}
</style>
<g>
	<path class="st0" d="M56.3,97.8C57.2,98,58,98,58.8,98c7.9,0,13.6-6.9,13.6-6.9c11.9-1.6,8.1-13.9,7.2-16.4
		c0.3-0.1,0.5-0.1,0.5-0.1c0.4-0.1,0.7-0.3,0.9-0.5c13.2-2,15.2-16.7,14-23.9c-1.1-6.3-5-8.4-6.1-8.9c0.2-0.3,0.3-0.5,0.3-0.6
		l-0.1,0c3.8-3.8,3.2-12-1.8-18.4c-2.8-3.5-5.1-4.4-6.6-4.4c-0.9,0-1.5,0.3-1.9,0.5c0-0.2,0-0.3-0.1-0.5c0.3-1.3,0.5-4.5-3-8
		c-1.7-1.8-3.5-2.3-4.9-2.3c-2.4,0-4.2,1.5-4.2,1.5s0.7-5.3-7-6.4c-0.8-0.1-1.6-0.2-2.3-0.2c-5.8,0-7.6,3.5-7.6,3.5
		c-0.7,0.7-0.3,4-0.3,4s0,76.9,0,80.6S47.1,96.1,56.3,97.8z M52.8,93.3c0-0.1,0-0.3,0.1-0.4c0.1-0.6,0.2-1.4,0.2-2.3v-6.1
		c0,0,0,0,0,0c0.1-0.3,2.8-5.5,12.5-3.4c1,0.2,2-0.4,2.2-1.3c0.2-0.9-0.4-1.9-1.4-2.1c-6.3-1.4-10.6-0.1-13.3,1.7V27.1
		c0.2-0.2,0.4-0.6,0.5-0.9c0-0.1,0.4-2.1,2.2-3.2c1.6-1,3.8-1.1,6.7-0.3c1,0.3,2-0.3,2.2-1.2c0.3-0.9-0.3-1.9-1.3-2.1
		c-4-1-7.2-0.8-9.7,0.7c-0.2,0.1-0.4,0.3-0.6,0.4V10c0-0.1,0-0.3,0-0.4C53,8.9,52.9,8,53,7.6c0,0,0,0,0,0c0.2-0.3,1.3-1.6,4.4-1.6
		c0.6,0,1.2,0,1.8,0.1C62.6,6.6,63,8,63,8.7c-0.3,1.5,0.4,2.9,1.8,3.6c0.5,0.3,1.1,0.4,1.6,0.4c0.9,0,1.9-0.4,2.6-1
		c0.3-0.2,1-0.6,1.8-0.6c0.7,0,1.5,0.4,2.3,1.2c2.6,2.6,2.2,4.5,2.1,5c-0.5,0.9-0.5,1.9-0.1,2.8c-0.3,2.4-1.3,7-4.7,9.8
		c-2.6,2.1-6.2,2.9-10.7,2.2c-1-0.1-1.9,0.5-2.1,1.5c-0.1,0.9,0.5,1.8,1.5,2c1.2,0.2,2.4,0.3,3.5,0.3c4,0,7.4-1.1,10.1-3.3
		c3.6-3,5.1-7.3,5.7-10.4c0.8,0,1.5-0.3,2.2-0.7c0,0,0,0,0.1,0c0.5,0,1.9,0.6,3.7,3c4.2,5.4,4.4,12.1,1.8,14.2
		c-0.7,0.5-1.1,1.3-1.3,2c-1,1.1-3.1,2.7-7.3,4c-5,1.6-8.9,5-10.6,9.1c-1.1,2.8-1.1,5.5,0.2,7.7c0.3,0.6,1,0.9,1.6,0.9
		c0.3,0,0.6-0.1,0.9-0.2c0.9-0.5,1.2-1.5,0.7-2.3c-0.8-1.3-0.8-3,0-4.8c1.3-3.1,4.5-5.8,8.4-7.1c3.6-1.2,6-2.6,7.6-3.8
		c0.3,0.2,0.6,0.3,1,0.4c0.4,0.2,3.2,1.5,4,6.3c0.7,3.9,0.2,11.3-3.7,16c-2.1,2.5-5,3.9-8.6,4.1c-0.7,0-1.4,0.3-2,0.7
		c-4.3,0.3-13.8-0.3-17.6-11c-0.3-0.9-1.4-1.4-2.3-1.1c-1,0.3-1.5,1.3-1.1,2.2c3.1,8.7,9.5,11.8,14.3,12.8c1.9,0.4,3.7,0.5,5.2,0.5
		c0.1,0,0.2,0,0.2,0c0,0.2,0.1,0.3,0.2,0.5c0.7,1.6,2.2,7,0.4,9.9c-0.3,0.5-1.2,1.9-4.5,2.3c-0.9,0.1-1.8,0.6-2.4,1.3
		c-0.2,0.2-4.8,5.6-10.7,5.6c-0.6,0-1.2-0.1-1.8-0.2C54.6,93.9,53.4,93.6,52.8,93.3z"/>
	<g>
		<g>
			<path class="st1" d="M17,74.2c1.3,0,3-0.1,4.7-0.5c5.7-1.2,9.6-4.8,11.7-10.6c0.3-0.9,1.4-1.4,2.3-1.1c1,0.3,1.5,1.3,1.1,2.2
				c-3.1,8.7-9.5,11.8-14.3,12.8c-1.9,0.4-3.7,0.5-5.2,0.5c-0.3,0-0.6,0-0.9,0c-1,4.6-1.2,12.3,8,13.5c0,0,6.9,8.4,16.1,6.7
				c9.2-1.7,6.9-3.5,6.9-7.2c0-1.7,0-19.3,0-37.6c-1.9-1.1-5-1.9-9.8-0.8c-1,0.2-2-0.4-2.2-1.3c-0.2-0.9,0.4-1.9,1.4-2.1
				c4.5-1,8-0.6,10.6,0.3c0-19.8,0-39.2,0-39.2s0.4-3.3-0.3-4c0,0-2.2-4.4-9.9-3.3c-7.7,1.1-7,6.4-7,6.4s-4.5-3.9-9.1,0.8
				c-2.6,2.6-3.2,5-3.2,6.6c0.1,0.2,0.1,0.4,0.1,0.6c0,0,0,0.3,0,0.8c0.1,0.4,0.2,0.6,0.2,0.6s-0.1,0-0.2-0.1
				c0.2,2.3,1.2,7.1,4.7,10.1c2.6,2.1,6.2,2.9,10.7,2.2c1-0.1,1.9,0.5,2.1,1.5c0.1,0.9-0.5,1.8-1.5,2c-1.2,0.2-2.4,0.3-3.5,0.3
				c-4,0-7.4-1.1-10.1-3.3c-4.9-4-5.8-10.4-6-12.9c-1.4,0.5-3.1,1.6-5,4.1C5,28,4.1,35.2,6.7,39.4c1.1,1,3.3,2.5,7.4,3.7
				c5,1.4,9.1,4.7,11,8.7c1.3,2.7,1.3,5.5,0.1,7.8c-0.3,0.6-0.9,0.9-1.6,1c-0.3,0-0.6,0-0.9-0.2c-0.9-0.4-1.3-1.5-0.8-2.3
				c0.7-1.4,0.6-3.1-0.2-4.8c-1.4-3.1-4.7-5.6-8.7-6.7c-3.6-1-6.1-2.3-7.7-3.5c-1.4,1.3-3,3.6-3.6,7.3C0.5,57.5,2.7,73,17,74.2z
				 M30.8,21.4c-1,0.3-2-0.3-2.2-1.2c-0.3-0.9,0.3-1.9,1.3-2.1c4-1,7.2-0.8,9.7,0.7c3.2,2,3.8,5.4,3.8,5.6c0.1,0.9-0.6,1.8-1.5,2
				c-0.1,0-0.2,0-0.3,0c-0.9,0-1.7-0.6-1.8-1.5c0,0-0.4-2.1-2.2-3.2C36,20.7,33.7,20.6,30.8,21.4z"/>
		</g>
	</g>
	<g>
		<g>
			<path class="st0" d="M143.9,42.8c0,3.8,0,7.3,0,10.3c0,3,0.1,5.4,0.4,7.1c0.1,1.2,0.3,2.2,0.7,3c0.4,0.8,1.2,1.3,2.4,1.4
				c0.6,0.1,1.2,0.2,2,0.2c0.7,0.1,1.3,0.1,1.6,0.1c0.4,0,0.6,0.2,0.6,0.5c0,0.4-0.4,0.6-1.3,0.6c-1.1,0-2.2,0-3.4,0
				c-1.1,0-2.1-0.1-3.1-0.1c-0.9,0-1.7-0.1-2.3-0.1c-0.6,0-1,0-1.1,0c-0.1,0-0.5,0-1.1,0c-0.6,0-1.3,0.1-2.1,0.1
				c-0.8,0-1.6,0.1-2.5,0.1c-0.9,0-1.6,0-2.2,0c-0.9,0-1.3-0.2-1.3-0.6c0-0.3,0.2-0.5,0.6-0.5c0.4,0,0.8,0,1.2-0.1
				c0.4-0.1,0.8-0.1,1.2-0.2c0.8-0.2,1.3-0.6,1.6-1.4c0.3-0.8,0.5-1.8,0.7-3c0.2-1.7,0.3-4.1,0.4-7.1c0-3,0-6.4,0-10.3V8.9
				l-11.8,0.2c-1.2,0-2.3,0.1-3.2,0.2c-0.9,0.1-1.6,0.3-2.3,0.4c-0.6,0.2-1.2,0.4-1.6,0.8c-0.4,0.3-0.8,0.7-1.1,1.2
				c-0.4,0.7-0.7,1.2-0.9,1.6c-0.2,0.3-0.3,0.7-0.4,0.9c-0.2,0.5-0.5,0.8-0.8,0.8c-0.3,0-0.4-0.2-0.4-0.7c0-0.2,0.1-0.7,0.2-1.6
				c0.2-0.8,0.3-1.7,0.6-2.7c0.2-1,0.4-1.8,0.6-2.6s0.3-1.3,0.4-1.4c0.1-0.3,0.2-0.6,0.4-1c0.1-0.4,0.3-0.6,0.4-0.6
				c0.3,0,0.7,0.1,1.2,0.4c0.5,0.3,1.3,0.5,2.4,0.6c1.2,0.1,2.4,0.2,3.7,0.3c1.3,0.1,2.2,0.1,2.6,0.1h30c1.3,0,2.4,0,3.3-0.1
				c0.9-0.1,1.7-0.2,2.4-0.3c0.6-0.1,1.1-0.2,1.4-0.3c0.4-0.1,0.6-0.1,0.8-0.1c0.2,0,0.3,0.1,0.4,0.3c0,0.2,0,0.4,0,0.7
				c0,0.6,0,1.3,0,2.2c0,0.9-0.1,1.8-0.1,2.7c0,0.9-0.1,1.7-0.1,2.4c0,0.7,0,1.2,0,1.4c0,0.7-0.2,1-0.6,1c-0.2,0-0.4-0.1-0.4-0.2
				s-0.1-0.5-0.2-1.1l-0.1-0.9c-0.1-0.6-0.2-1.1-0.6-1.7c-0.3-0.5-0.8-1-1.6-1.4c-0.7-0.4-1.7-0.7-3-0.9c-1.3-0.2-2.8-0.4-4.8-0.4
				l-10.1-0.2V42.8z"/>
			<path class="st0" d="M230.4,42.8c0,3.8,0,7.3,0,10.3c0,3,0.1,5.4,0.4,7.1c0.1,1.2,0.3,2.2,0.7,3s1.2,1.3,2.4,1.4
				c0.6,0.1,1.2,0.2,2,0.2c0.7,0.1,1.3,0.1,1.6,0.1c0.4,0,0.6,0.2,0.6,0.5c0,0.4-0.4,0.6-1.3,0.6c-1.1,0-2.2,0-3.4,0
				c-1.1,0-2.1-0.1-3.1-0.1c-0.9,0-1.7-0.1-2.3-0.1c-0.6,0-1,0-1.1,0c-0.1,0-0.5,0-1.1,0c-0.6,0-1.3,0.1-2.1,0.1
				c-0.8,0-1.6,0.1-2.5,0.1c-0.9,0-1.6,0-2.2,0c-0.9,0-1.3-0.2-1.3-0.6c0-0.3,0.2-0.5,0.6-0.5c0.4,0,0.8,0,1.2-0.1
				c0.4-0.1,0.8-0.1,1.2-0.2c0.8-0.2,1.3-0.6,1.6-1.4s0.5-1.8,0.7-3c0.2-1.7,0.3-4.1,0.4-7.1c0-3,0-6.4,0-10.3v-8.4
				c0-0.3-0.2-0.5-0.5-0.5h-33.9c-0.3,0-0.5,0.2-0.5,0.5v8.4c0,3.8,0,7.3,0,10.3c0,3,0.1,5.4,0.4,7.1c0.1,1.2,0.3,2.2,0.7,3
				s1.2,1.3,2.4,1.4c0.6,0.1,1.2,0.2,2,0.2c0.7,0.1,1.3,0.1,1.6,0.1c0.4,0,0.6,0.2,0.6,0.5c0,0.4-0.4,0.6-1.3,0.6
				c-1.1,0-2.2,0-3.4,0c-1.1,0-2.1-0.1-3.1-0.1c-0.9,0-1.7-0.1-2.3-0.1c-0.6,0-1,0-1.1,0c-0.1,0-0.5,0-1.1,0c-0.6,0-1.3,0.1-2.1,0.1
				c-0.8,0-1.6,0.1-2.5,0.1c-0.9,0-1.6,0-2.2,0c-0.9,0-1.3-0.2-1.3-0.6c0-0.3,0.2-0.5,0.6-0.5c0.4,0,0.8,0,1.2-0.1
				c0.4-0.1,0.8-0.1,1.2-0.2c0.8-0.2,1.3-0.6,1.6-1.4c0.3-0.8,0.5-1.8,0.7-3c0.2-1.7,0.3-4.1,0.4-7.1c0-3,0-6.4,0-10.3V28.7
				c0-3.1,0-5.6,0-7.6c0-2,0-3.5,0-4.7c0-1.2,0-2.2,0-2.9c0-0.7-0.1-1.4-0.1-2c-0.1-1.4-0.4-2.4-0.8-3.1c-0.4-0.7-1.3-1.2-2.6-1.4
				c-0.3-0.1-0.8-0.2-1.3-0.2c-0.6,0-1,0-1.4,0c-0.4,0-0.6-0.2-0.6-0.5c0-0.4,0.4-0.6,1.3-0.6c0.9,0,1.9,0,2.9,0c1,0,2,0.1,2.8,0.1
				c0.9,0,1.6,0.1,2.2,0.1c0.6,0,1,0,1.1,0c0.1,0,0.5,0,1.1,0c0.6,0,1.3-0.1,2.1-0.1c0.8,0,1.6-0.1,2.5-0.1c0.9,0,1.6,0,2.2,0
				c0.9,0,1.3,0.2,1.3,0.6c0,0.3-0.2,0.5-0.6,0.5c-0.3,0-0.5,0-0.8,0c-0.3,0-0.7,0.1-1.2,0.2c-1.1,0.2-1.8,0.7-2.2,1.4
				s-0.7,1.8-0.8,3.2c-0.1,0.6-0.1,1.3-0.1,2c0,0.7,0,1.7,0,2.9c0,1.2,0,2.7,0,4.7c0,2,0,4.5,0,7.6v1.7c0,0.3,0.2,0.5,0.5,0.5h33.9
				c0.3,0,0.5-0.2,0.5-0.5v-1.7c0-3.1,0-5.6,0-7.6c0-2,0-3.5,0-4.7c0-1.2,0-2.2,0-2.9c0-0.7-0.1-1.4-0.1-2c-0.1-1.4-0.4-2.4-0.8-3.1
				c-0.4-0.7-1.3-1.2-2.6-1.4c-0.3-0.1-0.8-0.2-1.3-0.2c-0.6,0-1,0-1.4,0c-0.4,0-0.6-0.2-0.6-0.5c0-0.4,0.4-0.6,1.3-0.6
				c0.9,0,1.9,0,2.9,0c1,0,2,0.1,2.8,0.1c0.9,0,1.6,0.1,2.2,0.1c0.6,0,1,0,1.1,0c0.1,0,0.5,0,1.1,0c0.6,0,1.3-0.1,2.1-0.1
				c0.8,0,1.6-0.1,2.5-0.1c0.9,0,1.6,0,2.2,0c0.9,0,1.3,0.2,1.3,0.6c0,0.3-0.2,0.5-0.6,0.5c-0.3,0-0.5,0-0.8,0
				c-0.3,0-0.7,0.1-1.2,0.2c-1.1,0.2-1.8,0.7-2.2,1.4c-0.4,0.7-0.7,1.8-0.8,3.2c-0.1,0.6-0.1,1.3-0.1,2s0,1.7,0,2.9
				c0,1.2,0,2.7,0,4.7c0,2,0,4.5,0,7.6V42.8z"/>
			<path class="st0" d="M265.6,42.8c0,3.8,0,7.3,0,10.3c0,3,0.1,5.4,0.4,7.1c0.1,1.2,0.3,2.2,0.7,3c0.4,0.8,1.2,1.3,2.4,1.4
				c0.6,0.1,1.2,0.2,2,0.2c0.7,0.1,1.3,0.1,1.6,0.1c0.4,0,0.6,0.2,0.6,0.5c0,0.4-0.4,0.6-1.3,0.6c-1.1,0-2.2,0-3.4,0
				c-1.1,0-2.1-0.1-3.1-0.1c-0.9,0-1.7-0.1-2.3-0.1c-0.6,0-1,0-1.1,0c-0.1,0-0.5,0-1.1,0c-0.6,0-1.3,0.1-2.1,0.1
				c-0.8,0-1.6,0.1-2.5,0.1c-0.9,0-1.6,0-2.2,0c-0.9,0-1.3-0.2-1.3-0.6c0-0.3,0.2-0.5,0.6-0.5c0.4,0,0.8,0,1.2-0.1
				c0.4-0.1,0.8-0.1,1.2-0.2c0.8-0.2,1.3-0.6,1.6-1.4c0.3-0.8,0.5-1.8,0.7-3c0.2-1.7,0.3-4.1,0.4-7.1c0-3,0-6.4,0-10.3V28.7
				c0-3.1,0-5.6,0-7.6c0-2,0-3.5,0-4.7c0-1.2,0-2.2,0-2.9c0-0.7-0.1-1.4-0.1-2c-0.2-2.6-1.1-4.1-2.7-4.5c-0.4-0.1-0.9-0.2-1.4-0.2
				c-0.5-0.1-0.9-0.1-1.1-0.1c-0.4,0-0.6-0.2-0.6-0.5c0-0.4,0.4-0.6,1.3-0.6c0.6,0,1.4,0,2.3,0c0.9,0,1.8,0.1,2.6,0.1
				c0.8,0,1.5,0.1,2.1,0.1c0.6,0,1,0,1.1,0c0.1,0,0.5,0,1.1,0c0.6,0,1.3-0.1,2.1-0.1c0.8,0,1.6-0.1,2.5-0.1c0.9,0,1.6,0,2.2,0
				c0.9,0,1.3,0.2,1.3,0.6c0,0.3-0.2,0.5-0.6,0.5c-0.3,0-0.5,0-0.8,0c-0.3,0-0.7,0.1-1.2,0.2c-1.1,0.2-1.8,0.7-2.2,1.4
				c-0.4,0.7-0.7,1.8-0.8,3.2c-0.1,0.6-0.1,1.3-0.1,2c0,0.7,0,1.7,0,2.9c0,1.2,0,2.7,0,4.7c0,2,0,4.5,0,7.6V42.8z"/>
			<path class="st0" d="M305.6,7.5c0.5-1.3,0.8-2.2,1-2.6c0.2-0.4,0.5-0.6,0.7-0.6c0.3,0,0.5,0.2,0.7,0.5c0.2,0.3,0.6,1.1,1,2.4
				c0.2,0.5,0.7,1.7,1.5,3.8c0.8,2,1.7,4.5,2.8,7.4c1.1,2.9,2.3,6.1,3.6,9.6c1.3,3.5,2.7,6.9,4,10.3c1.3,3.4,2.6,6.6,3.8,9.6
				s2.2,5.6,3,7.6c0.7,1.8,1.4,3.2,2,4.3c0.7,1.1,1.3,2,1.8,2.6s1.1,1.1,1.6,1.4c0.5,0.3,1,0.5,1.4,0.6c0.6,0.2,1.2,0.3,1.7,0.4
				c0.6,0.1,1.1,0.1,1.5,0.1c0.5,0,0.8,0.2,0.8,0.5c0,0.3-0.2,0.4-0.5,0.5c-0.3,0.1-0.7,0.1-1.1,0.1c-0.3,0-0.9,0-1.8,0
				c-0.8,0-1.8,0-3,0c-1.1,0-2.4,0-3.7,0c-1.4,0-2.7-0.1-4.1-0.1c-0.7-0.1-1.3-0.1-1.8-0.1c-0.4,0-0.6-0.2-0.6-0.4
				c0-0.3,0.2-0.5,0.6-0.6c0.3-0.1,0.5-0.3,0.6-0.7c0.2-0.3,0.1-0.8-0.2-1.5l-7.4-19.7c-0.2-0.3-0.4-0.5-0.7-0.5h-17.2
				c-0.4,0-0.6,0.2-0.8,0.6l-4.8,14.2c-0.7,2.1-1.1,3.9-1.1,5.4c0,0.8,0.3,1.4,1,1.8c0.7,0.4,1.3,0.6,2,0.6h0.8
				c0.5,0,0.8,0.2,0.8,0.5c0,0.4-0.4,0.6-1.2,0.6c-0.5,0-1,0-1.7,0c-0.6,0-1.3-0.1-1.8-0.1c-0.6,0-1.1-0.1-1.6-0.1
				c-0.5,0-0.9,0-1.1,0c-0.2,0-0.6,0-1.2,0c-0.6,0-1.3,0.1-2.2,0.1c-0.9,0-1.8,0.1-2.7,0.1c-1,0-1.9,0-2.9,0c-1,0-1.5-0.2-1.5-0.6
				c0-0.3,0.2-0.5,0.7-0.5c0.3,0,0.6,0,1.1,0c0.5,0,0.9-0.1,1.2-0.1c1.9-0.3,3.3-1.1,4.2-2.4c0.9-1.4,1.8-3.1,2.5-5.1L305.6,7.5z
				 M313.9,39.5c0.3,0,0.4-0.2,0.3-0.6l-7.6-21.6c-0.4-1.2-0.8-1.2-1.2,0l-7,21.6c-0.2,0.4-0.1,0.6,0.2,0.6H313.9z"/>
			<path class="st0" d="M388,45.6c0-1.6,0-2.9-0.1-3.9c-0.1-1-0.2-1.8-0.5-2.3s-0.6-1-1.1-1.3c-0.5-0.3-1.1-0.5-1.9-0.8
				c-0.3-0.1-0.8-0.2-1.3-0.2c-0.6,0-1,0-1.4,0c-0.4,0-0.6-0.2-0.6-0.5c0-0.4,0.4-0.6,1.3-0.6c0.9,0,1.9,0,2.9,0c1,0,2,0.1,2.8,0.1
				c0.9,0,1.6,0.1,2.2,0.1c0.6,0,1,0,1.1,0c0.1,0,0.5,0,1.1,0c0.6,0,1.3-0.1,2.1-0.1c0.8,0,1.6-0.1,2.5-0.1c0.9,0,1.6,0,2.2,0
				c0.9,0,1.3,0.2,1.3,0.6c0,0.3-0.2,0.5-0.6,0.5c-0.3,0-0.5,0-0.8,0c-0.3,0-0.7,0.1-1.2,0.2c-1.1,0.2-1.8,0.7-2.2,1.4
				s-0.7,1.8-0.8,3.2c-0.1,1.3-0.2,2.6-0.2,3.8s0,2.8,0,4.5v9c0,0.9,0,1.6,0,2.1c0,0.5-0.1,0.9-0.1,1.2c-0.1,0.3-0.2,0.5-0.3,0.6
				c-0.2,0.1-0.3,0.2-0.6,0.4c-1.3,0.7-2.7,1.3-4.2,1.7c-1.5,0.5-3,0.8-4.5,1.1c-1.5,0.3-3,0.5-4.4,0.6c-1.4,0.1-2.7,0.2-3.9,0.2
				c-1.5,0-3.4-0.1-5.4-0.2c-2.1-0.2-4.3-0.5-6.7-1.1c-2.4-0.6-4.8-1.5-7.2-2.6c-2.4-1.1-4.8-2.7-7-4.6c-1.2-1.1-2.4-2.4-3.6-4
				c-1.1-1.6-2.2-3.3-3-5.3c-0.9-1.9-1.6-4.1-2.1-6.4c-0.5-2.3-0.8-4.7-0.8-7.2c0-3.2,0.4-6.2,1.1-8.9c0.7-2.7,1.7-5.2,2.9-7.4
				c1.2-2.2,2.7-4.2,4.3-5.8c1.6-1.7,3.3-3.1,5.1-4.2c1.8-1.1,3.7-2,5.5-2.7c1.9-0.7,3.7-1.2,5.5-1.5c1.8-0.3,3.6-0.6,5.3-0.7
				c1.7-0.1,3.4-0.2,4.9-0.2c1.3,0,2.6,0.1,3.8,0.2c1.3,0.1,2.5,0.2,3.6,0.4c1.1,0.2,2.1,0.3,3,0.5c0.9,0.2,1.5,0.3,1.8,0.3
				c0.9,0.2,1.9,0.4,3.1,0.5c1.2,0.1,2.3,0.2,3.4,0.3c0.4,0.1,0.7,0.1,0.8,0.3c0.1,0.1,0.2,0.3,0.2,0.4c0,0.3,0,0.6-0.1,1.1
				c-0.1,0.5-0.1,1.1-0.2,2c-0.1,0.9-0.1,1.9-0.2,3.3c-0.1,1.3-0.1,3-0.1,5c0,0.6-0.1,1.1-0.2,1.3c-0.1,0.2-0.3,0.4-0.6,0.4
				s-0.5-0.4-0.6-1.2c-0.1-0.6-0.2-1.4-0.4-2.4c-0.2-1-0.7-2-1.2-2.9c-0.5-0.7-1.3-1.5-2.3-2.3c-1.1-0.8-2.4-1.5-4-2.1
				c-1.6-0.6-3.4-1.1-5.5-1.5c-2.1-0.4-4.4-0.6-7-0.6c-1.3,0-2.6,0.1-4,0.2c-1.4,0.1-2.8,0.3-4.2,0.7c-1.4,0.3-2.9,0.9-4.4,1.6
				s-3,1.7-4.5,2.8c-2.3,1.9-4.3,4.5-5.7,8c-1.5,3.5-2.2,7.6-2.2,12.3c0,2.8,0.3,5.4,0.9,7.8c0.6,2.4,1.4,4.5,2.2,6.4
				c0.9,1.9,1.8,3.5,2.8,4.8c1,1.3,1.8,2.3,2.5,3c3.2,3.1,6.6,5.3,10.1,6.6c3.5,1.3,7.2,2,10.8,2c0.7,0,1.5,0,2.3-0.1
				c0.9-0.1,1.7-0.1,2.5-0.3c0.8-0.1,1.6-0.3,2.4-0.5c0.7-0.2,1.4-0.5,1.9-0.8c1.1-0.6,1.6-1.5,1.6-2.8V45.6z"/>
			<path class="st0" d="M410.7,28.8c0.5-2.4,1.4-4.8,2.5-7.1s2.5-4.5,4.2-6.6s3.7-4,6-5.6c2.3-1.6,5-2.9,8-3.8c3-0.9,6.3-1.4,10-1.4
				c4.5,0,8.6,0.7,12.5,2.1c3.8,1.4,7.2,3.4,10,6c2.8,2.6,5,5.7,6.6,9.4c1.6,3.7,2.4,7.9,2.4,12.5c0,4.5-0.8,8.7-2.3,12.7
				c-1.5,4-3.7,7.4-6.4,10.4s-6.1,5.3-10.1,7c-3.9,1.7-8.3,2.6-13.1,2.6c-5.5,0-10.2-1-14.1-2.9c-3.9-1.9-7.1-4.4-9.6-7.4
				c-2.5-3-4.3-6.4-5.5-10.1c-1.2-3.7-1.8-7.4-1.8-11C409.9,33.5,410.1,31.2,410.7,28.8z M419.4,46c1.3,3.8,3.1,7,5.4,9.7
				c2.3,2.7,5,4.7,8.1,6.2c3.1,1.4,6.5,2.2,10.1,2.2c1.8,0,4-0.3,6.5-1c2.5-0.7,4.9-2,7.2-4c2.3-2,4.3-4.8,5.9-8.4
				c1.6-3.6,2.4-8.3,2.4-14.1c0-4.8-0.7-9-2-12.7c-1.4-3.7-3.2-6.8-5.4-9.2c-2.2-2.5-4.8-4.4-7.8-5.6c-2.9-1.3-6-1.9-9.1-1.9
				c-3.4,0-6.5,0.5-9.3,1.6c-2.9,1.1-5.3,2.7-7.4,5c-2.1,2.2-3.7,5-4.9,8.2s-1.8,7.1-1.8,11.5C417.5,38,418.1,42.3,419.4,46z"/>
			<path class="st1" d="M492.3,66.6c-1.8-0.3-3.5-0.9-5.2-1.7c-0.6-0.3-0.9-0.6-1-0.9c-0.1-0.3-0.2-1.1-0.2-2.1c0-2,0.1-3.8,0.2-5.3
				c0.1-1.5,0.2-2.6,0.2-3.2c0.1-0.9,0.3-1.3,0.6-1.3c0.4,0,0.6,0.3,0.6,0.9c0,0.4,0,0.8,0,1.3c0,0.5,0.1,1.1,0.2,1.6
				c0.3,1.5,0.9,2.8,1.6,3.8c0.7,1,1.7,1.9,2.8,2.5c1.1,0.6,2.3,1.1,3.6,1.4c1.3,0.3,2.6,0.4,3.9,0.4c1.9,0,3.6-0.3,5-1
				c1.4-0.6,2.6-1.5,3.6-2.4c0.9-1,1.6-2.1,2.1-3.4c0.5-1.3,0.7-2.6,0.7-3.8c0-1.4-0.2-2.7-0.5-3.8c-0.3-1.1-0.8-2.3-1.6-3.4
				c-0.7-1.1-1.7-2.2-2.8-3.4c-1.2-1.1-2.6-2.4-4.3-3.9l-3.6-3c-2.1-1.8-3.9-3.4-5.2-4.9c-1.3-1.5-2.4-2.9-3.2-4.4
				c-0.8-1.4-1.3-2.8-1.6-4.1c-0.3-1.3-0.4-2.7-0.4-4c0-2.1,0.4-4.1,1.2-5.8c0.8-1.8,1.9-3.3,3.3-4.6s3.2-2.3,5.2-3
				c2-0.7,4.3-1,6.9-1c1.5,0,2.9,0.1,4.1,0.2c1.2,0.1,2.3,0.3,3.3,0.6c0.7,0.2,1.3,0.3,1.7,0.3c0.4,0.1,0.8,0.1,1.1,0.1
				c0.5,0,0.8,0.2,0.8,0.6c0,0.2-0.1,1-0.2,2.4c-0.1,1.4-0.2,3.4-0.2,6.1c0,1.2-0.2,1.8-0.6,1.8c-0.3,0-0.4-0.1-0.5-0.3
				c-0.1-0.2-0.1-0.4-0.2-0.8c-0.1-0.5-0.2-1.2-0.4-2c-0.2-0.9-0.4-1.5-0.7-2c-0.1-0.2-0.3-0.6-0.7-1c-0.4-0.5-0.9-1-1.7-1.4
				c-0.8-0.5-1.8-0.9-3-1.2c-1.2-0.3-2.7-0.5-4.6-0.5c-2.8,0-5.1,0.8-7,2.4c-1.9,1.6-2.8,3.9-2.8,6.8c0,1.1,0.1,2.2,0.4,3.2
				c0.3,1,0.8,2,1.6,3c0.7,1,1.7,2.1,3,3.3c1.3,1.2,2.8,2.5,4.8,4l2.2,1.8c2.3,1.9,4.3,3.6,5.8,5.2c1.5,1.6,2.7,3.1,3.6,4.6
				c0.9,1.5,1.5,2.9,1.8,4.4c0.3,1.5,0.5,3,0.5,4.6c0,0.8-0.1,1.8-0.3,2.9c-0.2,1.1-0.5,2.3-1,3.5c-0.5,1.2-1.2,2.4-2.1,3.6
				c-0.9,1.2-2,2.3-3.4,3.2c-1.7,1.2-3.6,2.1-5.7,2.6c-2.1,0.5-4.2,0.8-6.4,0.8C495.9,67.1,494.1,66.9,492.3,66.6z"/>
			<path class="st1" d="M544.5,42.8c0,3.8,0,7.3,0,10.3c0,3,0.1,5.4,0.4,7.1c0.1,1.2,0.3,2.2,0.7,3c0.4,0.8,1.2,1.3,2.4,1.4
				c0.6,0.1,1.2,0.2,2,0.2c0.7,0.1,1.3,0.1,1.6,0.1c0.4,0,0.6,0.2,0.6,0.5c0,0.4-0.4,0.6-1.3,0.6c-1.1,0-2.2,0-3.4,0
				c-1.1,0-2.1-0.1-3.1-0.1c-0.9,0-1.7-0.1-2.3-0.1c-0.6,0-1,0-1.1,0c-0.1,0-0.5,0-1.1,0c-0.6,0-1.3,0.1-2.1,0.1
				c-0.8,0-1.6,0.1-2.5,0.1c-0.9,0-1.6,0-2.2,0c-0.9,0-1.3-0.2-1.3-0.6c0-0.3,0.2-0.5,0.6-0.5c0.4,0,0.8,0,1.2-0.1
				c0.4-0.1,0.8-0.1,1.2-0.2c0.8-0.2,1.3-0.6,1.6-1.4s0.5-1.8,0.7-3c0.2-1.7,0.3-4.1,0.4-7.1c0-3,0-6.4,0-10.3V28.7
				c0-3.1,0-5.6,0-7.6c0-2,0-3.5,0-4.7c0-1.2,0-2.2,0-2.9c0-0.7-0.1-1.4-0.1-2c-0.2-2.6-1.1-4.1-2.7-4.5c-0.4-0.1-0.9-0.2-1.4-0.2
				c-0.5-0.1-0.9-0.1-1.1-0.1c-0.4,0-0.6-0.2-0.6-0.5c0-0.4,0.4-0.6,1.3-0.6c0.6,0,1.4,0,2.3,0c0.9,0,1.8,0.1,2.6,0.1
				c0.8,0,1.5,0.1,2.1,0.1c0.6,0,1,0,1.1,0c0.1,0,0.5,0,1.1,0c0.6,0,1.3-0.1,2.1-0.1c0.8,0,1.6-0.1,2.5-0.1c0.9,0,1.6,0,2.2,0
				c0.9,0,1.3,0.2,1.3,0.6c0,0.3-0.2,0.5-0.6,0.5c-0.3,0-0.5,0-0.8,0c-0.3,0-0.7,0.1-1.2,0.2c-1.1,0.2-1.8,0.7-2.2,1.4
				c-0.4,0.7-0.7,1.8-0.8,3.2c-0.1,0.6-0.1,1.3-0.1,2c0,0.7,0,1.7,0,2.9c0,1.2,0,2.7,0,4.7c0,2,0,4.5,0,7.6V42.8z"/>
			<path class="st1" d="M579.7,42.9c0,5.9,0.1,10.2,0.3,13c0.2,2.8,0.7,4.6,1.4,5.3c0.3,0.3,0.7,0.6,1.2,0.8c0.5,0.2,1,0.4,1.8,0.6
				c0.7,0.1,1.6,0.2,2.7,0.3s2.4,0.1,4,0.1c2.1,0,4-0.1,5.7-0.3c1.7-0.2,3-0.9,4-2.1c0.5-0.6,1-1.4,1.4-2.3c0.4-0.9,0.6-1.7,0.7-2.5
				c0.1-0.7,0.3-1,0.7-1c0.3,0,0.5,0.4,0.5,1.2c0,0.2,0,0.6-0.1,1.3c-0.1,0.6-0.1,1.4-0.3,2.2c-0.1,0.8-0.3,1.6-0.4,2.4
				c-0.1,0.8-0.3,1.5-0.4,2.1c-0.2,0.5-0.3,0.9-0.4,1.1c-0.1,0.3-0.4,0.5-0.7,0.6c-0.3,0.2-0.8,0.3-1.4,0.3
				c-0.6,0.1-1.5,0.1-2.5,0.1c-2.9,0-5.4,0-7.5-0.1c-2.1-0.1-4.1-0.1-5.8-0.2c-1.7-0.1-3.2-0.2-4.5-0.2c-1.3,0-2.5,0-3.7,0
				c-0.2,0-0.5,0-1.2,0c-0.6,0-1.3,0-2.1,0c-0.8,0.1-1.6,0.1-2.4,0.1c-0.8,0-1.5,0-2.1,0c-0.9,0-1.3-0.2-1.3-0.6
				c0-0.3,0.2-0.5,0.6-0.5c0.4,0,0.8,0,1.2-0.1c0.4-0.1,0.8-0.1,1.2-0.2c0.8-0.2,1.3-0.6,1.6-1.4s0.5-1.8,0.7-3
				c0.2-1.7,0.3-4.1,0.4-7.1c0-3,0-6.4,0-10.3V28.7c0-3.1,0-5.6,0-7.6c0-2,0-3.5,0-4.7c0-1.2,0-2.2,0-2.9c0-0.7-0.1-1.4-0.1-2
				c-0.1-1.4-0.4-2.4-0.8-3.1c-0.4-0.7-1.3-1.2-2.6-1.4c-0.3-0.1-0.8-0.2-1.3-0.2c-0.6,0-1,0-1.4,0c-0.4,0-0.6-0.2-0.6-0.5
				c0-0.4,0.4-0.6,1.3-0.6c0.9,0,1.9,0,2.9,0c1,0,2,0.1,2.8,0.1c0.9,0,1.6,0.1,2.2,0.1c0.6,0,1,0,1.1,0c0.1,0,0.5,0,1.2,0
				c0.7,0,1.5-0.1,2.4-0.1c0.9,0,1.8-0.1,2.8-0.1c0.9,0,1.7,0,2.3,0c0.9,0,1.3,0.2,1.3,0.6c0,0.3-0.2,0.5-0.6,0.5
				c-0.3,0-0.7,0-1.2,0c-0.5,0-1,0.1-1.5,0.2c-1.2,0.2-2,0.7-2.4,1.4c-0.4,0.7-0.7,1.8-0.8,3.2c-0.1,0.6-0.1,1.3-0.1,2
				c0,0.7,0,1.7,0,2.9c0,1.2,0,2.7,0,4.7c0,2,0,4.5,0,7.6V42.9z"/>
			<path class="st1" d="M634.1,56.2c0.7-1.8,1.7-4,2.7-6.6c1.1-2.6,2.2-5.4,3.4-8.4c1.2-3,2.4-6,3.6-9c1.2-3.1,2.3-5.9,3.3-8.6
				c1-2.7,1.9-5.1,2.6-7.2c0.7-2.1,1.2-3.6,1.6-4.6c0.2-0.6,0.4-1.1,0.5-1.7c0.1-0.5,0.2-1,0.2-1.4c0-0.3-0.1-0.7-0.2-1
				c-0.1-0.3-0.4-0.6-0.8-0.8c-0.5-0.2-1-0.3-1.6-0.3c-0.6,0-1.1,0-1.5,0c-0.6,0-0.9-0.2-0.9-0.5c0-0.4,0.6-0.6,1.8-0.6
				c1.6,0,3.2,0,4.8,0.1c1.6,0.1,2.6,0.1,3.1,0.1c0.1,0,0.4,0,0.8,0c0.5,0,1-0.1,1.6-0.1c0.6,0,1.3-0.1,1.9-0.1c0.7,0,1.3,0,1.9,0
				c0.9,0,1.4,0.2,1.4,0.6c0,0.4-0.3,0.6-1,0.6c-0.3,0-0.8,0-1.6,0.1c-0.8,0.1-1.5,0.4-2.3,0.8c-0.3,0.2-0.5,0.4-0.8,0.7
				c-0.3,0.3-0.6,0.7-1,1.3c-0.3,0.6-0.7,1.3-1.2,2.2c-0.4,0.9-0.9,2-1.4,3.4c-0.2,0.6-0.6,1.6-1.2,3c-0.6,1.4-1.3,3.1-2.1,5
				s-1.7,4.1-2.7,6.5c-1,2.3-2,4.7-3,7.2c-2.5,5.9-4.6,10.9-6.3,15c-1.8,4.2-3.1,7.2-4,9.2c-1.1,2.4-1.9,4-2.2,4.8
				c-0.4,0.8-0.7,1.2-1.1,1.2c-0.5,0-0.9-0.3-1.2-1c-0.3-0.7-0.9-2-1.6-3.9l-19.6-49c-0.4-1.1-0.8-2-1.2-2.7
				c-0.4-0.7-0.8-1.3-1.2-1.7c-0.4-0.5-0.9-0.8-1.4-1c-0.5-0.2-1.1-0.5-1.8-0.7c-0.6-0.2-1.2-0.3-1.8-0.3c-0.6,0-1,0-1.3,0
				c-0.4,0-0.6-0.2-0.6-0.6c0-0.4,0.7-0.6,2.1-0.6c1,0,1.9,0,3,0c1,0,1.9,0.1,2.8,0.1c0.9,0,1.6,0.1,2.2,0.1c0.6,0,1.1,0,1.4,0
				c0.4,0,1.4,0,2.9-0.1c1.5-0.1,3-0.1,4.6-0.1c1.4,0,2.2,0.2,2.2,0.6c0,0.4-0.3,0.6-0.8,0.6c-0.4,0-0.9,0-1.6,0.1
				c-0.6,0.1-1.1,0.2-1.5,0.3c-0.4,0.2-0.7,0.5-0.8,0.8c-0.1,0.3-0.2,0.6-0.2,0.8c0,0.5,0.2,1.4,0.6,2.6s0.9,2.5,1.5,4.1L634.1,56.2
				z"/>
			<path class="st1" d="M681.6,7.5c0.5-1.3,0.8-2.2,1-2.6c0.2-0.4,0.5-0.6,0.7-0.6c0.3,0,0.5,0.2,0.7,0.5c0.2,0.3,0.6,1.1,1,2.4
				c0.2,0.5,0.7,1.7,1.5,3.8c0.8,2,1.7,4.5,2.8,7.4c1.1,2.9,2.3,6.1,3.6,9.6c1.3,3.5,2.7,6.9,4,10.3c1.3,3.4,2.6,6.6,3.8,9.6
				c1.2,3,2.2,5.6,3,7.6c0.7,1.8,1.4,3.2,2,4.3c0.7,1.1,1.3,2,1.8,2.6c0.6,0.6,1.1,1.1,1.6,1.4c0.5,0.3,1,0.5,1.4,0.6
				c0.6,0.2,1.2,0.3,1.7,0.4c0.6,0.1,1.1,0.1,1.5,0.1c0.5,0,0.8,0.2,0.8,0.5c0,0.3-0.2,0.4-0.5,0.5c-0.3,0.1-0.7,0.1-1.1,0.1
				c-0.3,0-0.9,0-1.8,0c-0.8,0-1.8,0-3,0c-1.1,0-2.4,0-3.7,0c-1.4,0-2.7-0.1-4.1-0.1c-0.7-0.1-1.3-0.1-1.8-0.1
				c-0.4,0-0.6-0.2-0.6-0.4c0-0.3,0.2-0.5,0.6-0.6c0.3-0.1,0.5-0.3,0.6-0.7c0.2-0.3,0.1-0.8-0.2-1.5l-7.4-19.7
				c-0.2-0.3-0.4-0.5-0.7-0.5h-17.2c-0.4,0-0.6,0.2-0.8,0.6l-4.8,14.2c-0.7,2.1-1.1,3.9-1.1,5.4c0,0.8,0.3,1.4,1,1.8
				c0.7,0.4,1.3,0.6,2,0.6h0.8c0.5,0,0.8,0.2,0.8,0.5c0,0.4-0.4,0.6-1.2,0.6c-0.5,0-1,0-1.7,0c-0.6,0-1.3-0.1-1.8-0.1
				c-0.6,0-1.1-0.1-1.6-0.1c-0.5,0-0.9,0-1.1,0s-0.6,0-1.2,0c-0.6,0-1.3,0.1-2.2,0.1c-0.9,0-1.8,0.1-2.7,0.1c-1,0-1.9,0-2.9,0
				c-1,0-1.5-0.2-1.5-0.6c0-0.3,0.2-0.5,0.7-0.5c0.3,0,0.6,0,1.1,0c0.5,0,0.9-0.1,1.2-0.1c1.9-0.3,3.3-1.1,4.2-2.4
				c0.9-1.4,1.8-3.1,2.5-5.1L681.6,7.5z M689.9,39.5c0.3,0,0.4-0.2,0.3-0.6l-7.6-21.6c-0.4-1.2-0.8-1.2-1.2,0l-7,21.6
				c-0.2,0.4-0.1,0.6,0.2,0.6H689.9z"/>
		</g>
		<g>
			<path class="st2" d="M132.5,93.6c0,0.3,0,0.6,0.1,0.9c0,0.2,0.1,0.4,0.1,0.6s0.1,0.3,0.2,0.3s0.2,0.1,0.3,0.2
				c0.2,0,0.3,0.1,0.5,0.1c0.2,0,0.3,0,0.4,0c0.1,0,0.1,0,0.1,0.1c0,0.1-0.1,0.1-0.3,0.1c-0.5,0-0.9,0-1.3,0c-0.3,0-0.5,0-0.6,0
				s-0.3,0-0.6,0c-0.3,0-0.7,0-1.1,0c-0.2,0-0.3,0-0.3-0.1c0-0.1,0-0.1,0.1-0.1c0.1,0,0.2,0,0.3,0c0.1,0,0.3,0,0.4-0.1
				c0.1,0,0.2-0.1,0.3-0.2c0.1-0.1,0.1-0.2,0.2-0.4c0-0.2,0.1-0.4,0.1-0.6c0-0.3,0-0.6,0-1v-9.8c0-0.3,0-0.6,0.1-0.7
				c0-0.1,0.1-0.2,0.2-0.2c0.1,0,0.2,0.1,0.4,0.2c0.1,0.1,0.2,0.2,0.3,0.3c0.1,0.1,0.3,0.3,0.6,0.6c0.3,0.4,0.8,0.8,1.3,1.3
				s1.1,1.1,1.7,1.8c0.6,0.7,1.3,1.4,2,2c0.4,0.5,0.9,0.9,1.3,1.4c0.4,0.5,0.8,0.9,1.2,1.3c0.4,0.4,0.7,0.8,1,1.1
				c0.3,0.3,0.5,0.5,0.6,0.7l-0.2-8.5c0-0.5-0.1-0.9-0.1-1.2c-0.1-0.2-0.3-0.4-0.5-0.4c-0.2,0-0.3,0-0.5-0.1c-0.2,0-0.3,0-0.4,0
				c-0.1,0-0.1,0-0.1-0.1c0,0,0-0.1,0-0.1c0-0.1,0.1-0.1,0.3-0.1c0.4,0,0.8,0,1.1,0s0.6,0,0.7,0c0.1,0,0.3,0,0.6,0
				c0.3,0,0.6,0,0.9,0c0.2,0,0.3,0,0.3,0.1c0,0,0,0.1-0.1,0.1c0,0-0.1,0.1-0.2,0.1c0,0-0.1,0-0.2,0c-0.1,0-0.2,0-0.3,0
				c-0.1,0-0.3,0.1-0.3,0.1c-0.1,0.1-0.1,0.2-0.2,0.3c0,0.1-0.1,0.3-0.1,0.4c0,0.2,0,0.4,0,0.6l0,10c0,0.3,0,0.5,0,0.7
				c0,0.2,0,0.3,0,0.4c0,0.1,0,0.1,0,0.2c0,0,0,0-0.1,0c0,0-0.1,0-0.1,0c-0.1,0-0.1-0.1-0.2-0.2c-0.1-0.1-0.2-0.2-0.4-0.3
				c-0.2-0.1-0.4-0.3-0.6-0.5c0,0-0.2-0.2-0.5-0.5s-0.7-0.7-1.1-1.1c-0.4-0.4-0.9-0.9-1.4-1.5c-0.5-0.5-1-1-1.5-1.5
				c-0.5-0.5-1-1.1-1.5-1.6c-0.5-0.5-0.9-1-1.4-1.4s-0.8-0.8-1.1-1.1c-0.3-0.3-0.5-0.6-0.7-0.7L132.5,93.6z"/>
			<path class="st2" d="M154.5,88c0-0.7,0-1.2,0-1.6c0-0.4,0-0.7,0-1c0-0.3,0-0.5,0-0.6c0-0.2,0-0.3,0-0.4c0-0.3-0.1-0.5-0.2-0.7
				c-0.1-0.1-0.3-0.2-0.6-0.3c-0.1,0-0.2,0-0.3,0c-0.1,0-0.2,0-0.3,0c-0.1,0-0.1,0-0.1-0.1s0.1-0.1,0.3-0.1c0.2,0,0.4,0,0.6,0
				c0.2,0,0.4,0,0.6,0c0.2,0,0.4,0,0.5,0c0.1,0,0.2,0,0.3,0c0,0,0.1,0,0.3,0s0.4,0,0.7,0c0.3,0,0.6,0,0.9,0c0.3,0,0.7,0,1,0
				s0.6,0,0.8,0c0.2,0,0.4,0,0.4,0c0.2,0,0.3,0,0.5,0c0.1,0,0.3,0,0.3-0.1c0,0,0.1,0,0.1-0.1c0,0,0.1,0,0.1,0c0.1,0,0.1,0.1,0.1,0.2
				c0,0.1,0,0.2-0.1,0.3c0,0.1-0.1,0.3-0.1,0.5c0,0,0,0.1,0,0.2c0,0.1,0,0.2,0,0.3c0,0.1,0,0.2,0,0.3c0,0.1,0,0.2,0,0.2
				c0,0,0,0.1-0.1,0.1s-0.1,0.1-0.1,0.1c-0.1,0-0.1-0.1-0.1-0.2c0-0.1,0-0.2,0-0.3c0-0.1,0-0.2-0.1-0.3c0-0.1-0.1-0.1-0.1-0.2
				c0-0.1-0.1-0.1-0.2-0.1c-0.1,0-0.2-0.1-0.4-0.1c-0.1,0-0.3-0.1-0.6-0.1c-0.1,0-0.2,0-0.5,0c-0.3,0-0.5,0-0.8,0
				c-0.3,0-0.6,0-0.8,0c-0.2,0-0.4,0-0.4,0c-0.1,0-0.1,0.1-0.1,0.2v4.6c0,0.1,0,0.2,0.1,0.2c0.1,0,0.2,0,0.5,0c0.3,0,0.6,0,0.9,0
				s0.6,0,0.9,0c0.3,0,0.5,0,0.6,0c0.2,0,0.4-0.1,0.5-0.1c0.1,0,0.2-0.1,0.3-0.2c0.1-0.1,0.2-0.2,0.3-0.2c0.1,0,0.1,0,0.1,0.1
				c0,0.1,0,0.2-0.1,0.3c0,0.1-0.1,0.4-0.1,0.6c0,0.2,0,0.4-0.1,0.6c0,0.2,0,0.4,0,0.5c0,0.1,0,0.1,0,0.2c0,0.1-0.1,0.1-0.1,0.1
				c-0.1,0-0.1-0.1-0.1-0.2c0-0.1,0-0.2,0-0.3c0-0.1,0-0.2-0.1-0.3c0-0.1-0.1-0.2-0.2-0.3c-0.1-0.1-0.3-0.2-0.7-0.2
				c-0.1,0-0.3,0-0.6,0c-0.3,0-0.5,0-0.8,0c-0.3,0-0.5,0-0.8,0c-0.2,0-0.4,0-0.5,0c-0.1,0-0.1,0-0.1,0.1V91c0,0.1,0,0.4,0,0.7
				c0,0.3,0,0.6,0,0.9c0,0.3,0,0.6,0,0.9c0,0.3,0,0.4,0,0.5c0,0.3,0,0.5,0.1,0.7s0.2,0.3,0.3,0.4c0.2,0.1,0.4,0.2,0.6,0.2
				c0.3,0,0.6,0,1.1,0c0.2,0,0.5,0,0.9,0c0.4,0,0.7-0.1,0.9-0.2c0.2-0.1,0.4-0.2,0.5-0.4c0.1-0.2,0.2-0.4,0.3-0.8
				c0-0.2,0.1-0.3,0.2-0.3c0.1,0,0.1,0,0.1,0.1c0,0.1,0,0.1,0,0.2c0,0,0,0.1,0,0.3c0,0.1,0,0.3-0.1,0.5c0,0.2-0.1,0.4-0.1,0.5
				c0,0.2-0.1,0.3-0.1,0.4c0,0.1-0.1,0.2-0.1,0.3c0,0.1-0.1,0.1-0.2,0.1c-0.1,0-0.2,0-0.3,0.1c-0.1,0-0.3,0-0.4,0
				c-0.7,0-1.3,0-1.8,0s-0.9,0-1.3,0c-0.4,0-0.7,0-0.9,0c-0.2,0-0.4,0-0.5,0c0,0-0.1,0-0.3,0s-0.3,0-0.5,0c-0.2,0-0.4,0-0.5,0
				c-0.2,0-0.3,0-0.5,0c-0.2,0-0.3,0-0.3-0.1c0-0.1,0-0.1,0.1-0.1c0.1,0,0.2,0,0.3,0c0.1,0,0.2,0,0.3-0.1c0.2,0,0.3-0.1,0.3-0.3
				c0-0.2,0.1-0.4,0.1-0.6c0.1-0.3,0.1-0.8,0.1-1.5c0-0.6,0-1.4,0-2.2V88z"/>
			<path class="st2" d="M170.7,88c0-0.7,0-1.2,0-1.6c0-0.4,0-0.7,0-1c0-0.3,0-0.5,0-0.6c0-0.2,0-0.3,0-0.4c0-0.3-0.1-0.5-0.2-0.6
				s-0.3-0.3-0.6-0.3c-0.1,0-0.2,0-0.3,0c-0.1,0-0.2,0-0.3,0c-0.1,0-0.1,0-0.1-0.1s0.1-0.1,0.3-0.1c0.2,0,0.4,0,0.6,0
				c0.2,0,0.4,0,0.6,0c0.2,0,0.4,0,0.5,0c0.1,0,0.2,0,0.3,0c0,0,0.1,0,0.3,0c0.1,0,0.3,0,0.5,0c0.2,0,0.4,0,0.6,0c0.2,0,0.3,0,0.5,0
				c0.2,0,0.3,0,0.3,0.1s-0.1,0.1-0.2,0.1c-0.1,0-0.1,0-0.2,0c-0.1,0-0.1,0-0.2,0c-0.2,0-0.4,0.1-0.5,0.3c-0.1,0.2-0.1,0.4-0.2,0.7
				c0,0.1,0,0.3,0,0.4c0,0.2,0,0.4,0,0.6c0,0.3,0,0.6,0,1c0,0.4,0,0.9,0,1.6v2.4c0,0.6,0,1.1,0.1,1.6c0.1,0.4,0.2,0.8,0.3,1.2
				c0.1,0.3,0.2,0.6,0.4,0.8c0.2,0.2,0.3,0.4,0.5,0.6c0.4,0.4,0.8,0.6,1.3,0.8c0.4,0.1,0.9,0.2,1.4,0.2c0.5,0,1.1-0.1,1.5-0.3
				c0.5-0.2,0.9-0.5,1.2-0.9c0.4-0.5,0.7-1.1,0.8-1.8c0.1-0.7,0.2-1.5,0.2-2.4V88c0-0.7,0-1.2,0-1.6c0-0.4,0-0.8,0-1
				c0-0.3,0-0.5,0-0.6s0-0.3,0-0.4c0-0.3-0.1-0.5-0.1-0.6c-0.1-0.2-0.3-0.3-0.6-0.3c-0.1,0-0.2,0-0.3,0c-0.1,0-0.2,0-0.3,0
				c-0.1,0-0.1,0-0.1-0.1s0.1-0.1,0.3-0.1c0.2,0,0.4,0,0.6,0c0.2,0,0.4,0,0.6,0c0.2,0,0.3,0,0.5,0c0.1,0,0.2,0,0.2,0
				c0.1,0,0.3,0,0.6,0s0.6,0,0.9,0c0.2,0,0.3,0,0.3,0.1s0,0.1-0.1,0.1c-0.1,0-0.1,0-0.2,0c-0.1,0-0.1,0-0.2,0
				c-0.2,0.1-0.4,0.2-0.5,0.3c-0.1,0.1-0.1,0.4-0.2,0.6c0,0.1,0,0.3,0,0.4c0,0.1,0,0.4,0,0.6c0,0.3,0,0.6,0,1c0,0.4,0,0.9,0,1.6v1.8
				c0,0.5,0,0.9-0.1,1.4c0,0.5-0.1,0.9-0.2,1.4c-0.1,0.4-0.3,0.9-0.5,1.3c-0.2,0.4-0.5,0.7-0.8,1c-0.3,0.3-0.6,0.5-1,0.7
				c-0.3,0.2-0.6,0.3-1,0.4s-0.6,0.1-0.9,0.2c-0.3,0-0.6,0-0.8,0c-0.1,0-0.4,0-0.6,0c-0.3,0-0.6-0.1-0.9-0.1
				c-0.3-0.1-0.7-0.2-1.1-0.4c-0.4-0.2-0.7-0.4-1-0.7c-0.2-0.2-0.4-0.4-0.6-0.7c-0.2-0.3-0.4-0.6-0.5-0.9c-0.1-0.3-0.3-0.8-0.3-1.2
				c-0.1-0.5-0.1-1-0.1-1.6V88z"/>
			<path class="st2" d="M192.3,88c0-0.7,0-1.2,0-1.6c0-0.4,0-0.7,0-1c0-0.3,0-0.5,0-0.6c0-0.2,0-0.3,0-0.4c0-0.3-0.1-0.5-0.2-0.7
				c-0.1-0.1-0.3-0.2-0.6-0.3c-0.1,0-0.2,0-0.3,0c-0.1,0-0.2,0-0.3,0c-0.1,0-0.1,0-0.1-0.1s0.1-0.1,0.3-0.1c0.2,0,0.4,0,0.7,0
				c0.2,0,0.5,0,0.7,0s0.4,0,0.5,0c0.1,0,0.2,0,0.3,0c0,0,0.2,0,0.3,0c0.2,0,0.4,0,0.6,0s0.5,0,0.7,0c0.2,0,0.4,0,0.6,0
				c0.6,0,1.1,0,1.7,0.1c0.6,0.1,1.1,0.3,1.6,0.6c0.1,0.1,0.2,0.2,0.4,0.3c0.1,0.1,0.3,0.3,0.4,0.5c0.1,0.2,0.2,0.4,0.3,0.7
				c0.1,0.2,0.1,0.5,0.1,0.8c0,0.6-0.2,1.3-0.5,1.9c-0.3,0.6-0.9,1.3-1.7,2c0.7,0.9,1.4,1.7,2,2.5c0.6,0.7,1.2,1.4,1.7,1.9
				c0.5,0.5,0.9,0.8,1.2,0.9c0.3,0.1,0.6,0.2,0.8,0.3c0.2,0,0.3,0,0.4,0.1c0.1,0,0.2,0,0.2,0c0.1,0,0.2,0,0.2,0.1
				c0,0.1,0,0.1-0.1,0.1c-0.1,0-0.2,0-0.3,0h-1.1c-0.5,0-0.9,0-1.2-0.1c-0.3-0.1-0.5-0.1-0.7-0.3c-0.4-0.2-0.8-0.5-1.1-0.9
				c-0.4-0.4-0.8-0.9-1.3-1.6c-0.2-0.2-0.4-0.5-0.6-0.7c-0.2-0.2-0.4-0.5-0.5-0.7c-0.2-0.2-0.3-0.4-0.5-0.6
				c-0.1-0.2-0.3-0.3-0.4-0.5c-0.1-0.1-0.1-0.1-0.2-0.1l-2.2,0c-0.1,0-0.1,0-0.1,0.1V91c0,0.8,0,1.6,0,2.2c0,0.6,0,1.1,0.1,1.5
				c0,0.3,0.1,0.5,0.2,0.6c0.1,0.2,0.3,0.2,0.5,0.3c0.1,0,0.3,0,0.4,0.1c0.2,0,0.3,0,0.4,0c0.1,0,0.1,0,0.1,0.1
				c0,0.1-0.1,0.1-0.3,0.1c-0.2,0-0.5,0-0.7,0c-0.2,0-0.5,0-0.7,0c-0.2,0-0.4,0-0.5,0c-0.1,0-0.2,0-0.2,0c-0.3,0-0.5,0-0.7,0
				c-0.2,0-0.4,0-0.6,0c-0.2,0-0.4,0-0.5,0c-0.2,0-0.3,0-0.3-0.1c0-0.1,0-0.1,0.1-0.1c0.1,0,0.2,0,0.3,0c0.1,0,0.2,0,0.3-0.1
				c0.2,0,0.3-0.1,0.3-0.3c0-0.2,0.1-0.4,0.1-0.6c0.1-0.3,0.1-0.8,0.1-1.5c0-0.6,0-1.4,0-2.2V88z M193.9,89.4c0,0.1,0,0.2,0.1,0.2
				c0.1,0,0.2,0.1,0.3,0.1s0.3,0.1,0.5,0.1c0.2,0,0.4,0,0.6,0.1c0.2,0,0.4,0,0.6,0c0.2,0,0.4,0,0.7,0c0.2,0,0.4-0.1,0.7-0.3
				c0.3-0.2,0.6-0.5,0.8-1c0.2-0.4,0.3-1,0.3-1.6c0-1.1-0.3-1.9-0.8-2.5c-0.5-0.6-1.3-0.9-2.2-0.9c-0.3,0-0.5,0-0.8,0
				c-0.2,0-0.4,0-0.5,0.1c-0.1,0.1-0.1,0.1-0.1,0.2V89.4z"/>
			<path class="st2" d="M210.3,87.2c0.3-0.8,0.7-1.5,1.3-2.2c0.6-0.7,1.3-1.2,2.2-1.6c0.9-0.4,1.9-0.7,3.1-0.7c1,0,1.9,0.1,2.8,0.4
				c0.9,0.3,1.6,0.7,2.2,1.3c0.6,0.6,1.1,1.2,1.5,2c0.4,0.8,0.5,1.7,0.5,2.7c0,0.9-0.2,1.8-0.5,2.7c-0.3,0.8-0.8,1.6-1.4,2.2
				c-0.6,0.6-1.4,1.1-2.2,1.5s-1.8,0.6-2.9,0.6c-1.2,0-2.2-0.2-3.1-0.6c-0.9-0.4-1.6-0.9-2.1-1.6c-0.6-0.6-1-1.4-1.2-2.2
				c-0.3-0.8-0.4-1.6-0.4-2.3C209.9,88.8,210,88,210.3,87.2z M212.1,91.7c0.3,0.8,0.7,1.5,1.2,2c0.5,0.6,1.1,1,1.8,1.3
				c0.7,0.3,1.4,0.5,2.2,0.5c0.4,0,0.9-0.1,1.4-0.2c0.5-0.1,1.1-0.4,1.6-0.8c0.5-0.4,0.9-1,1.3-1.8c0.3-0.8,0.5-1.7,0.5-3
				c0-1-0.1-1.9-0.4-2.7c-0.3-0.8-0.7-1.4-1.2-2c-0.5-0.5-1-0.9-1.7-1.2c-0.6-0.3-1.3-0.4-2-0.4c-0.7,0-1.4,0.1-2,0.4
				c-0.6,0.2-1.2,0.6-1.6,1c-0.4,0.5-0.8,1-1.1,1.7c-0.3,0.7-0.4,1.5-0.4,2.4C211.7,90,211.8,90.9,212.1,91.7z"/>
			<path class="st2" d="M236.7,95.7c-0.9-0.3-1.7-0.8-2.4-1.4c-0.4-0.4-0.8-0.8-1.1-1.2c-0.3-0.4-0.5-0.8-0.7-1.3
				c-0.2-0.4-0.3-0.9-0.3-1.3c-0.1-0.4-0.1-0.9-0.1-1.3c0-0.3,0-0.6,0.1-1c0.1-0.4,0.2-0.8,0.3-1.2c0.1-0.4,0.4-0.8,0.6-1.3
				c0.3-0.4,0.6-0.8,1-1.2c0.3-0.3,0.6-0.5,0.9-0.7c0.3-0.2,0.7-0.4,1.2-0.6c0.4-0.2,0.9-0.3,1.5-0.4s1.2-0.1,1.8-0.1
				c0.3,0,0.8,0,1.2,0.1c0.5,0,0.9,0.1,1.3,0.2c0.3,0.1,0.6,0.1,0.9,0.2c0.3,0,0.6,0.1,0.9,0.1c0.1,0,0.2,0.1,0.2,0.2
				c0,0.1,0,0.2,0,0.3c0,0.1,0,0.4-0.1,0.7c0,0.1,0,0.3,0,0.5c0,0.2,0,0.3,0,0.5c0,0.2,0,0.3,0,0.5c0,0.1,0,0.2,0,0.3
				c0,0.2-0.1,0.4-0.2,0.4c-0.1,0-0.1-0.1-0.1-0.4c0-0.3-0.1-0.7-0.2-1c-0.1-0.3-0.3-0.6-0.5-0.7c-0.3-0.3-0.8-0.5-1.4-0.7
				c-0.6-0.2-1.3-0.3-2.1-0.3c-0.6,0-1.1,0-1.5,0.1c-0.4,0.1-0.8,0.2-1.1,0.3s-0.6,0.2-0.8,0.4c-0.2,0.1-0.4,0.3-0.6,0.4
				c-0.7,0.6-1.1,1.3-1.3,2s-0.3,1.6-0.3,2.4c0,0.8,0.2,1.6,0.5,2.3c0.3,0.7,0.7,1.4,1.3,2c0.6,0.6,1.2,1,2,1.4
				c0.8,0.3,1.6,0.5,2.6,0.5c0.7,0,1.2,0,1.7-0.1c0.5-0.1,0.9-0.3,1.2-0.7c0.2-0.2,0.3-0.4,0.5-0.7c0.1-0.3,0.2-0.5,0.2-0.7
				c0-0.1,0-0.2,0.1-0.2c0,0,0.1-0.1,0.1-0.1c0,0,0.1,0,0.1,0.1c0,0,0.1,0.1,0.1,0.2c0,0,0,0.1,0,0.3c0,0.2-0.1,0.4-0.1,0.6
				c0,0.2-0.1,0.5-0.1,0.7c-0.1,0.2-0.1,0.4-0.1,0.6c-0.1,0.2-0.1,0.3-0.2,0.3c0,0.1-0.1,0.1-0.3,0.2c-0.4,0.1-0.8,0.2-1.4,0.3
				c-0.6,0.1-1.2,0.1-1.8,0.1C238.7,96.1,237.6,96,236.7,95.7z"/>
			<path class="st2" d="M256,91c0,0.8,0,1.6,0,2.2c0,0.6,0,1.1,0.1,1.5c0,0.3,0.1,0.5,0.1,0.6c0.1,0.2,0.2,0.2,0.5,0.3
				c0.1,0,0.3,0,0.4,0.1c0.2,0,0.3,0,0.4,0c0.1,0,0.1,0,0.1,0.1c0,0.1-0.1,0.1-0.3,0.1c-0.2,0-0.5,0-0.7,0c-0.3,0-0.5,0-0.7,0
				c-0.2,0-0.4,0-0.5,0c-0.1,0-0.2,0-0.2,0c0,0-0.1,0-0.2,0c-0.1,0-0.3,0-0.5,0c-0.2,0-0.4,0-0.6,0c-0.2,0-0.3,0-0.5,0
				c-0.2,0-0.3,0-0.3-0.1c0-0.1,0-0.1,0.1-0.1c0.1,0,0.2,0,0.3,0c0.1,0,0.2,0,0.3-0.1c0.2,0,0.3-0.1,0.3-0.3
				c0.1-0.2,0.1-0.4,0.1-0.6c0-0.3,0.1-0.8,0.1-1.5c0-0.6,0-1.4,0-2.2v-3c0-0.7,0-1.2,0-1.6c0-0.4,0-0.7,0-1c0-0.3,0-0.5,0-0.6
				c0-0.2,0-0.3,0-0.4c0-0.3-0.1-0.5-0.2-0.7c-0.1-0.1-0.2-0.2-0.4-0.3c-0.1,0-0.2,0-0.3-0.1c-0.1,0-0.2,0-0.2,0
				c-0.1,0-0.1,0-0.1-0.1s0.1-0.1,0.3-0.1c0.1,0,0.3,0,0.5,0c0.2,0,0.4,0,0.6,0c0.2,0,0.3,0,0.5,0c0.1,0,0.2,0,0.2,0
				c0,0,0.1,0,0.2,0c0.1,0,0.3,0,0.5,0c0.2,0,0.4,0,0.6,0c0.2,0,0.4,0,0.5,0c0.2,0,0.3,0,0.3,0.1s0,0.1-0.1,0.1c-0.1,0-0.1,0-0.2,0
				c-0.1,0-0.1,0-0.2,0c-0.2,0.1-0.4,0.1-0.5,0.3c-0.1,0.1-0.1,0.4-0.2,0.7c0,0.1,0,0.3,0,0.4s0,0.4,0,0.6c0,0.3,0,0.6,0,1
				c0,0.4,0,0.9,0,1.6V91z"/>
			<path class="st2" d="M268.2,88c0-0.7,0-1.2,0-1.6c0-0.4,0-0.7,0-1c0-0.3,0-0.5,0-0.6s0-0.3,0-0.4c0-0.3-0.1-0.5-0.2-0.7
				c-0.1-0.1-0.3-0.2-0.6-0.3c-0.1,0-0.2,0-0.3,0c-0.1,0-0.2,0-0.3,0c-0.1,0-0.1,0-0.1-0.1s0.1-0.1,0.3-0.1c0.2,0,0.4,0,0.7,0
				c0.2,0,0.5,0,0.7,0s0.4,0,0.5,0c0.1,0,0.2,0,0.3,0c0,0,0.2,0,0.3,0c0.2,0,0.4,0,0.6,0s0.5,0,0.7,0c0.2,0,0.4,0,0.6,0
				c0.6,0,1.1,0,1.7,0.1c0.6,0.1,1.1,0.3,1.6,0.6c0.1,0.1,0.2,0.2,0.4,0.3c0.1,0.1,0.3,0.3,0.4,0.5c0.1,0.2,0.2,0.4,0.3,0.7
				c0.1,0.2,0.1,0.5,0.1,0.8c0,0.6-0.2,1.3-0.5,1.9c-0.3,0.6-0.9,1.3-1.7,2c0.7,0.9,1.4,1.7,2,2.5c0.6,0.7,1.2,1.4,1.7,1.9
				c0.5,0.5,0.9,0.8,1.2,0.9c0.3,0.1,0.6,0.2,0.8,0.3c0.2,0,0.3,0,0.4,0.1c0.1,0,0.2,0,0.2,0c0.1,0,0.2,0,0.2,0.1
				c0,0.1,0,0.1-0.1,0.1c-0.1,0-0.2,0-0.3,0h-1.1c-0.5,0-0.9,0-1.2-0.1c-0.3-0.1-0.5-0.1-0.7-0.3c-0.4-0.2-0.8-0.5-1.1-0.9
				c-0.4-0.4-0.8-0.9-1.3-1.6c-0.2-0.2-0.4-0.5-0.6-0.7c-0.2-0.2-0.4-0.5-0.5-0.7c-0.2-0.2-0.3-0.4-0.5-0.6
				c-0.1-0.2-0.3-0.3-0.4-0.5c-0.1-0.1-0.1-0.1-0.2-0.1l-2.2,0c-0.1,0-0.1,0-0.1,0.1V91c0,0.8,0,1.6,0,2.2c0,0.6,0,1.1,0.1,1.5
				c0,0.3,0.1,0.5,0.2,0.6c0.1,0.2,0.3,0.2,0.5,0.3c0.1,0,0.3,0,0.4,0.1s0.3,0,0.4,0c0.1,0,0.1,0,0.1,0.1c0,0.1-0.1,0.1-0.3,0.1
				c-0.2,0-0.5,0-0.7,0c-0.2,0-0.5,0-0.7,0c-0.2,0-0.4,0-0.5,0c-0.1,0-0.2,0-0.2,0c-0.3,0-0.5,0-0.7,0c-0.2,0-0.4,0-0.6,0
				c-0.2,0-0.4,0-0.5,0c-0.2,0-0.3,0-0.3-0.1c0-0.1,0-0.1,0.1-0.1c0.1,0,0.2,0,0.3,0c0.1,0,0.2,0,0.3-0.1c0.2,0,0.3-0.1,0.3-0.3
				c0-0.2,0.1-0.4,0.1-0.6c0.1-0.3,0.1-0.8,0.1-1.5c0-0.6,0-1.4,0-2.2V88z M269.8,89.4c0,0.1,0,0.2,0.1,0.2c0.1,0,0.2,0.1,0.3,0.1
				s0.3,0.1,0.5,0.1c0.2,0,0.4,0,0.6,0.1c0.2,0,0.4,0,0.6,0c0.2,0,0.4,0,0.7,0c0.2,0,0.4-0.1,0.7-0.3c0.3-0.2,0.6-0.5,0.8-1
				s0.3-1,0.3-1.6c0-1.1-0.3-1.9-0.8-2.5c-0.5-0.6-1.3-0.9-2.2-0.9c-0.3,0-0.5,0-0.8,0c-0.2,0-0.4,0-0.5,0.1
				c-0.1,0.1-0.1,0.1-0.1,0.2V89.4z"/>
			<path class="st2" d="M286.9,88c0-0.7,0-1.2,0-1.6c0-0.4,0-0.7,0-1c0-0.3,0-0.5,0-0.6c0-0.2,0-0.3,0-0.4c0-0.3-0.1-0.5-0.2-0.6
				s-0.3-0.3-0.6-0.3c-0.1,0-0.2,0-0.3,0c-0.1,0-0.2,0-0.3,0c-0.1,0-0.1,0-0.1-0.1s0.1-0.1,0.3-0.1c0.2,0,0.4,0,0.6,0
				c0.2,0,0.4,0,0.6,0c0.2,0,0.4,0,0.5,0c0.1,0,0.2,0,0.3,0c0,0,0.1,0,0.3,0c0.1,0,0.3,0,0.5,0c0.2,0,0.4,0,0.6,0c0.2,0,0.3,0,0.5,0
				c0.2,0,0.3,0,0.3,0.1s-0.1,0.1-0.2,0.1c-0.1,0-0.1,0-0.2,0c-0.1,0-0.1,0-0.2,0c-0.2,0-0.4,0.1-0.5,0.3c-0.1,0.2-0.1,0.4-0.2,0.7
				c0,0.1,0,0.3,0,0.4c0,0.2,0,0.4,0,0.6c0,0.3,0,0.6,0,1c0,0.4,0,0.9,0,1.6v2.4c0,0.6,0,1.1,0.1,1.6c0.1,0.4,0.2,0.8,0.3,1.2
				c0.1,0.3,0.2,0.6,0.4,0.8c0.2,0.2,0.3,0.4,0.5,0.6c0.4,0.4,0.8,0.6,1.3,0.8c0.4,0.1,0.9,0.2,1.4,0.2c0.5,0,1.1-0.1,1.5-0.3
				c0.5-0.2,0.9-0.5,1.2-0.9c0.4-0.5,0.7-1.1,0.8-1.8c0.1-0.7,0.2-1.5,0.2-2.4V88c0-0.7,0-1.2,0-1.6c0-0.4,0-0.8,0-1
				c0-0.3,0-0.5,0-0.6s0-0.3,0-0.4c0-0.3-0.1-0.5-0.1-0.6s-0.3-0.3-0.6-0.3c-0.1,0-0.2,0-0.3,0c-0.1,0-0.2,0-0.3,0
				c-0.1,0-0.1,0-0.1-0.1s0.1-0.1,0.3-0.1c0.2,0,0.4,0,0.6,0c0.2,0,0.4,0,0.6,0c0.2,0,0.3,0,0.5,0c0.1,0,0.2,0,0.2,0
				c0.1,0,0.3,0,0.6,0s0.6,0,0.9,0c0.2,0,0.3,0,0.3,0.1s0,0.1-0.1,0.1c-0.1,0-0.1,0-0.2,0c-0.1,0-0.1,0-0.2,0
				c-0.2,0.1-0.4,0.2-0.5,0.3c-0.1,0.1-0.1,0.4-0.2,0.6c0,0.1,0,0.3,0,0.4c0,0.1,0,0.4,0,0.6c0,0.3,0,0.6,0,1c0,0.4,0,0.9,0,1.6v1.8
				c0,0.5,0,0.9-0.1,1.4c0,0.5-0.1,0.9-0.2,1.4c-0.1,0.4-0.3,0.9-0.5,1.3c-0.2,0.4-0.5,0.7-0.8,1c-0.3,0.3-0.6,0.5-1,0.7
				s-0.6,0.3-1,0.4c-0.3,0.1-0.6,0.1-0.9,0.2c-0.3,0-0.6,0-0.8,0c-0.1,0-0.4,0-0.6,0c-0.3,0-0.6-0.1-0.9-0.1
				c-0.3-0.1-0.7-0.2-1.1-0.4c-0.4-0.2-0.7-0.4-1-0.7c-0.2-0.2-0.4-0.4-0.6-0.7c-0.2-0.3-0.4-0.6-0.5-0.9c-0.1-0.3-0.3-0.8-0.3-1.2
				c-0.1-0.5-0.1-1-0.1-1.6V88z"/>
			<path class="st2" d="M308.5,88c0-0.7,0-1.2,0-1.6c0-0.4,0-0.7,0-1c0-0.3,0-0.5,0-0.6s0-0.3,0-0.4c0-0.3-0.1-0.5-0.2-0.7
				c-0.1-0.1-0.3-0.2-0.6-0.3c-0.1,0-0.2,0-0.3,0c-0.1,0-0.2,0-0.3,0c-0.1,0-0.1,0-0.1-0.1s0.1-0.1,0.3-0.1c0.2,0,0.4,0,0.7,0
				c0.2,0,0.5,0,0.7,0s0.4,0,0.5,0c0.1,0,0.2,0,0.3,0c0,0,0.2,0,0.3,0c0.2,0,0.4,0,0.6,0s0.5,0,0.7,0c0.2,0,0.4,0,0.6,0
				c0.6,0,1.1,0,1.7,0.1c0.6,0.1,1.1,0.3,1.6,0.6c0.1,0.1,0.2,0.2,0.4,0.3c0.1,0.1,0.3,0.3,0.4,0.5c0.1,0.2,0.2,0.4,0.3,0.7
				c0.1,0.2,0.1,0.5,0.1,0.8c0,0.6-0.2,1.3-0.5,1.9c-0.3,0.6-0.9,1.3-1.7,2c0.7,0.9,1.4,1.7,2,2.5c0.6,0.7,1.2,1.4,1.7,1.9
				c0.5,0.5,0.9,0.8,1.2,0.9c0.3,0.1,0.6,0.2,0.8,0.3c0.2,0,0.3,0,0.4,0.1c0.1,0,0.2,0,0.2,0c0.1,0,0.2,0,0.2,0.1
				c0,0.1,0,0.1-0.1,0.1c-0.1,0-0.2,0-0.3,0h-1.1c-0.5,0-0.9,0-1.2-0.1c-0.3-0.1-0.5-0.1-0.7-0.3c-0.4-0.2-0.8-0.5-1.1-0.9
				c-0.4-0.4-0.8-0.9-1.3-1.6c-0.2-0.2-0.4-0.5-0.6-0.7c-0.2-0.2-0.4-0.5-0.5-0.7c-0.2-0.2-0.3-0.4-0.5-0.6
				c-0.1-0.2-0.3-0.3-0.4-0.5c-0.1-0.1-0.1-0.1-0.2-0.1l-2.2,0c-0.1,0-0.1,0-0.1,0.1V91c0,0.8,0,1.6,0,2.2c0,0.6,0,1.1,0.1,1.5
				c0,0.3,0.1,0.5,0.2,0.6c0.1,0.2,0.3,0.2,0.5,0.3c0.1,0,0.3,0,0.4,0.1c0.2,0,0.3,0,0.4,0c0.1,0,0.1,0,0.1,0.1
				c0,0.1-0.1,0.1-0.3,0.1c-0.2,0-0.5,0-0.7,0c-0.2,0-0.5,0-0.7,0c-0.2,0-0.4,0-0.5,0c-0.1,0-0.2,0-0.2,0c-0.3,0-0.5,0-0.7,0
				c-0.2,0-0.4,0-0.6,0c-0.2,0-0.4,0-0.5,0c-0.2,0-0.3,0-0.3-0.1c0-0.1,0-0.1,0.1-0.1c0.1,0,0.2,0,0.3,0c0.1,0,0.2,0,0.3-0.1
				c0.2,0,0.3-0.1,0.3-0.3c0-0.2,0.1-0.4,0.1-0.6c0.1-0.3,0.1-0.8,0.1-1.5c0-0.6,0-1.4,0-2.2V88z M310,89.4c0,0.1,0,0.2,0.1,0.2
				c0.1,0,0.2,0.1,0.3,0.1s0.3,0.1,0.5,0.1c0.2,0,0.4,0,0.6,0.1c0.2,0,0.4,0,0.6,0c0.2,0,0.4,0,0.7,0c0.2,0,0.4-0.1,0.7-0.3
				c0.3-0.2,0.6-0.5,0.8-1c0.2-0.4,0.3-1,0.3-1.6c0-1.1-0.3-1.9-0.8-2.5c-0.5-0.6-1.3-0.9-2.2-0.9c-0.3,0-0.5,0-0.8,0
				c-0.2,0-0.4,0-0.5,0.1c-0.1,0.1-0.1,0.1-0.1,0.2V89.4z"/>
			<path class="st2" d="M336.3,91.6c0-0.3,0-0.6,0-0.8c0-0.2,0-0.4-0.1-0.5c0-0.1-0.1-0.2-0.2-0.3c-0.1-0.1-0.2-0.1-0.4-0.1
				c-0.1,0-0.2,0-0.3,0c-0.1,0-0.2,0-0.3,0c-0.1,0-0.1,0-0.1-0.1c0-0.1,0.1-0.1,0.3-0.1c0.2,0,0.4,0,0.7,0c0.2,0,0.5,0,0.7,0
				c0.2,0,0.4,0,0.5,0c0.1,0,0.2,0,0.3,0c0,0,0.1,0,0.2,0c0.1,0,0.3,0,0.5,0c0.2,0,0.4,0,0.6,0c0.2,0,0.3,0,0.5,0
				c0.2,0,0.3,0,0.3,0.1c0,0.1,0,0.1-0.1,0.1c-0.1,0-0.1,0-0.2,0c-0.1,0-0.1,0-0.2,0c-0.2,0-0.4,0.1-0.5,0.3
				c-0.1,0.1-0.1,0.4-0.2,0.7c0,0.3,0,0.5,0,0.8c0,0.3,0,0.6,0,0.9v1.9c0,0.4,0,0.6,0,0.7c0,0.1-0.1,0.2-0.2,0.2
				c-0.3,0.1-0.6,0.3-0.9,0.4c-0.3,0.1-0.7,0.2-1,0.2c-0.3,0.1-0.7,0.1-1,0.1c-0.3,0-0.6,0-0.9,0c-0.3,0-0.7,0-1.2-0.1
				c-0.5,0-1-0.1-1.5-0.2c-0.5-0.1-1.1-0.3-1.6-0.6c-0.5-0.2-1.1-0.6-1.6-1c-0.3-0.2-0.5-0.5-0.8-0.8c-0.3-0.3-0.5-0.7-0.7-1.1
				c-0.2-0.4-0.4-0.9-0.5-1.4c-0.1-0.5-0.2-1-0.2-1.5c0-0.7,0.1-1.3,0.2-1.9s0.4-1.1,0.6-1.6s0.6-0.9,0.9-1.2s0.7-0.7,1.1-0.9
				c0.8-0.5,1.6-0.8,2.4-0.9c0.8-0.1,1.6-0.2,2.3-0.2c0.3,0,0.6,0,0.9,0c0.3,0,0.6,0,0.8,0.1c0.2,0,0.5,0.1,0.7,0.1
				c0.2,0,0.3,0.1,0.4,0.1c0.2,0,0.4,0.1,0.7,0.1c0.3,0,0.5,0.1,0.7,0.1c0.1,0,0.2,0.1,0.2,0.2c0,0.1,0,0.1,0,0.2c0,0.1,0,0.2,0,0.4
				c0,0.2,0,0.4,0,0.7c0,0.3,0,0.6,0,1.1c0,0.1,0,0.2-0.1,0.3c0,0-0.1,0.1-0.2,0.1c-0.1,0-0.1-0.1-0.1-0.3c0-0.1,0-0.3-0.1-0.5
				c-0.1-0.2-0.2-0.4-0.3-0.6c-0.2-0.3-0.7-0.6-1.3-0.9c-0.7-0.3-1.6-0.4-2.7-0.4c-0.5,0-1.1,0.1-1.7,0.2c-0.6,0.1-1.3,0.4-1.9,0.9
				c-0.5,0.4-0.9,0.9-1.3,1.7c-0.3,0.7-0.5,1.6-0.5,2.6c0,0.6,0.1,1.2,0.2,1.7c0.1,0.5,0.3,1,0.5,1.4c0.2,0.4,0.4,0.7,0.6,1
				s0.4,0.5,0.6,0.6c0.7,0.7,1.4,1.1,2.2,1.4c0.7,0.3,1.5,0.4,2.3,0.4c0.3,0,0.6,0,1-0.1c0.4,0,0.7-0.1,0.9-0.3
				c0.1-0.1,0.2-0.1,0.3-0.2c0.1-0.1,0.1-0.2,0.1-0.3V91.6z"/>
			<path class="st2" d="M350.9,91c0,0.8,0,1.6,0,2.2c0,0.6,0,1.1,0.1,1.5c0,0.3,0.1,0.5,0.1,0.6c0.1,0.2,0.2,0.2,0.5,0.3
				c0.1,0,0.3,0,0.4,0.1c0.2,0,0.3,0,0.4,0c0.1,0,0.1,0,0.1,0.1c0,0.1-0.1,0.1-0.3,0.1c-0.2,0-0.5,0-0.7,0c-0.3,0-0.5,0-0.7,0
				c-0.2,0-0.4,0-0.5,0c-0.1,0-0.2,0-0.2,0c0,0-0.1,0-0.2,0c-0.1,0-0.3,0-0.5,0c-0.2,0-0.4,0-0.6,0c-0.2,0-0.3,0-0.5,0
				c-0.2,0-0.3,0-0.3-0.1c0-0.1,0-0.1,0.1-0.1c0.1,0,0.2,0,0.3,0c0.1,0,0.2,0,0.3-0.1c0.2,0,0.3-0.1,0.3-0.3
				c0.1-0.2,0.1-0.4,0.1-0.6c0-0.3,0.1-0.8,0.1-1.5c0-0.6,0-1.4,0-2.2v-3c0-0.7,0-1.2,0-1.6c0-0.4,0-0.7,0-1c0-0.3,0-0.5,0-0.6
				s0-0.3,0-0.4c0-0.3-0.1-0.5-0.2-0.7c-0.1-0.1-0.2-0.2-0.4-0.3c-0.1,0-0.2,0-0.3-0.1c-0.1,0-0.2,0-0.2,0c-0.1,0-0.1,0-0.1-0.1
				s0.1-0.1,0.3-0.1c0.1,0,0.3,0,0.5,0c0.2,0,0.4,0,0.6,0c0.2,0,0.3,0,0.5,0c0.1,0,0.2,0,0.2,0c0,0,0.1,0,0.2,0c0.1,0,0.3,0,0.5,0
				c0.2,0,0.4,0,0.6,0c0.2,0,0.4,0,0.5,0c0.2,0,0.3,0,0.3,0.1s0,0.1-0.1,0.1c-0.1,0-0.1,0-0.2,0c-0.1,0-0.1,0-0.2,0
				c-0.2,0.1-0.4,0.1-0.5,0.3c-0.1,0.1-0.1,0.4-0.2,0.7c0,0.1,0,0.3,0,0.4s0,0.4,0,0.6c0,0.3,0,0.6,0,1c0,0.4,0,0.9,0,1.6V91z"/>
			<path class="st2" d="M365.8,83.4c0.1-0.3,0.2-0.5,0.2-0.5c0.1-0.1,0.1-0.1,0.2-0.1c0.1,0,0.2,0.1,0.2,0.2c0,0.1,0.1,0.3,0.2,0.5
				c0.1,0.1,0.2,0.4,0.4,0.8c0.2,0.4,0.4,1,0.7,1.6c0.3,0.6,0.5,1.3,0.8,2c0.3,0.7,0.6,1.5,0.9,2.2c0.3,0.7,0.6,1.4,0.8,2.1
				c0.3,0.6,0.5,1.2,0.7,1.6c0.2,0.4,0.3,0.7,0.5,0.9c0.1,0.2,0.3,0.4,0.4,0.5c0.1,0.1,0.2,0.2,0.4,0.3s0.2,0.1,0.3,0.1
				c0.1,0,0.3,0.1,0.4,0.1s0.2,0,0.3,0c0.1,0,0.1,0,0.2,0c0,0,0.1,0.1,0.1,0.1c0,0.1,0,0.1-0.1,0.1c-0.1,0-0.2,0-0.3,0
				c-0.1,0-0.2,0-0.4,0c-0.2,0-0.4,0-0.7,0c-0.3,0-0.5,0-0.8,0c-0.3,0-0.6,0-0.9,0c-0.2,0-0.3,0-0.4,0c-0.1,0-0.2,0-0.2-0.1
				c0,0,0-0.1,0-0.1c0,0,0,0,0.1-0.1c0.1,0,0.1-0.1,0.2-0.1c0.1-0.1,0.1-0.2,0-0.3l-1.6-3.9c0-0.1-0.1-0.1-0.2-0.1H364
				c-0.1,0-0.1,0-0.2,0.1l-1,2.7c-0.2,0.5-0.3,0.8-0.3,1.1c0,0.2,0.1,0.3,0.2,0.4c0.1,0.1,0.3,0.1,0.4,0.1h0.2c0.1,0,0.2,0,0.2,0.1
				c0,0.1-0.1,0.1-0.3,0.1c-0.1,0-0.2,0-0.4,0c-0.2,0-0.3,0-0.5,0c-0.2,0-0.3,0-0.4,0c-0.1,0-0.2,0-0.3,0c0,0-0.1,0-0.2,0
				c-0.1,0-0.3,0-0.4,0c-0.2,0-0.3,0-0.5,0c-0.2,0-0.4,0-0.6,0c-0.2,0-0.3,0-0.3-0.1c0-0.1,0.1-0.1,0.2-0.1c0.1,0,0.2,0,0.3,0
				c0.1,0,0.2,0,0.3,0c0.4-0.1,0.7-0.2,0.9-0.5c0.2-0.3,0.4-0.6,0.6-1.1L365.8,83.4z M366.8,81.3c-0.3-0.1-0.5-0.2-0.7-0.3
				c-0.2-0.1-0.4-0.2-0.6-0.3c-0.2-0.1-0.5-0.2-0.8-0.2c-0.2,0-0.3,0-0.5,0.1c-0.1,0.1-0.3,0.1-0.4,0.2c-0.1,0.1-0.2,0.2-0.2,0.2
				c-0.1,0.1-0.1,0.1-0.2,0.2c-0.1,0.1-0.2,0.2-0.3,0.2c-0.1,0-0.1,0-0.1-0.1c0-0.1,0-0.1,0-0.1s0.1-0.1,0.1-0.2
				c0.1-0.1,0.2-0.2,0.3-0.4c0.1-0.2,0.3-0.3,0.4-0.5c0.2-0.2,0.3-0.3,0.5-0.4c0.2-0.1,0.3-0.2,0.5-0.2c0.2,0,0.5,0.1,0.8,0.2
				c0.3,0.1,0.6,0.3,0.9,0.4c0.1,0.1,0.3,0.1,0.6,0.2c0.2,0.1,0.4,0.1,0.6,0.1c0.2,0,0.4,0,0.5-0.1c0.1-0.1,0.3-0.1,0.4-0.2
				c0.1-0.1,0.2-0.1,0.2-0.2c0.1-0.1,0.1-0.1,0.1-0.1c0.1-0.1,0.2-0.2,0.2-0.2c0.1,0,0.1,0,0.1,0.1c0,0.1,0,0.2-0.1,0.3
				c0,0.1-0.1,0.2-0.2,0.4c-0.1,0.2-0.3,0.3-0.4,0.5c-0.2,0.2-0.3,0.3-0.5,0.4c-0.2,0.1-0.3,0.2-0.5,0.2
				C367.4,81.5,367.1,81.4,366.8,81.3z M367.8,90.5c0.1,0,0.1,0,0.1-0.1l-1.7-4.7c-0.1-0.3-0.2-0.3-0.3,0l-1.6,4.7
				c0,0.1,0,0.1,0.1,0.1H367.8z"/>
			<path class="st2" d="M380.1,87.2c0.3-0.8,0.7-1.5,1.3-2.2c0.6-0.7,1.3-1.2,2.2-1.6c0.9-0.4,1.9-0.7,3.1-0.7c1,0,1.9,0.1,2.8,0.4
				c0.9,0.3,1.6,0.7,2.2,1.3c0.6,0.6,1.1,1.2,1.5,2c0.4,0.8,0.5,1.7,0.5,2.7c0,0.9-0.2,1.8-0.5,2.7c-0.3,0.8-0.8,1.6-1.4,2.2
				c-0.6,0.6-1.4,1.1-2.2,1.5c-0.9,0.4-1.8,0.6-2.9,0.6c-1.2,0-2.2-0.2-3.1-0.6c-0.9-0.4-1.6-0.9-2.1-1.6c-0.6-0.6-1-1.4-1.2-2.2
				c-0.3-0.8-0.4-1.6-0.4-2.3C379.7,88.8,379.8,88,380.1,87.2z M382,91.7c0.3,0.8,0.7,1.5,1.2,2c0.5,0.6,1.1,1,1.8,1.3
				c0.7,0.3,1.4,0.5,2.2,0.5c0.4,0,0.9-0.1,1.4-0.2c0.5-0.1,1.1-0.4,1.6-0.8c0.5-0.4,0.9-1,1.3-1.8c0.3-0.8,0.5-1.7,0.5-3
				c0-1-0.1-1.9-0.4-2.7c-0.3-0.8-0.7-1.4-1.2-2c-0.5-0.5-1-0.9-1.7-1.2c-0.6-0.3-1.3-0.4-2-0.4c-0.7,0-1.4,0.1-2,0.4
				c-0.6,0.2-1.2,0.6-1.6,1c-0.4,0.5-0.8,1-1.1,1.7c-0.3,0.7-0.4,1.5-0.4,2.4C381.5,90,381.7,90.9,382,91.7z"/>
		</g>
	</g>
</g>
</svg>
